<svg width="78" height="78" viewBox="0 0 78 78" fill="none" xmlns="http://www.w3.org/2000/svg">
<path d="M9.75 29.25C13.3399 29.25 16.25 26.3399 16.25 22.75C16.25 19.1601 13.3399 16.25 9.75 16.25C6.16015 16.25 3.25 19.1601 3.25 22.75C3.25 26.3399 6.16015 29.25 9.75 29.25Z" stroke="#323232" stroke-opacity="0.6" stroke-width="5" stroke-miterlimit="10" stroke-linecap="round" stroke-linejoin="round"/>
<path d="M68.25 29.25C71.8399 29.25 74.75 26.3399 74.75 22.75C74.75 19.1601 71.8399 16.25 68.25 16.25C64.6601 16.25 61.75 19.1601 61.75 22.75C61.75 26.3399 64.6601 29.25 68.25 29.25Z" stroke="#323232" stroke-opacity="0.6" stroke-width="5" stroke-miterlimit="10" stroke-linecap="round" stroke-linejoin="round"/>
<path d="M61.75 22.75H48.75" stroke="#323232" stroke-opacity="0.6" stroke-width="5" stroke-miterlimit="10" stroke-linecap="round" stroke-linejoin="round"/>
<path d="M29.25 22.75H16.25" stroke="#323232" stroke-opacity="0.6" stroke-width="5" stroke-miterlimit="10" stroke-linecap="round" stroke-linejoin="round"/>
<path d="M24.375 53.625V60.125C24.375 62.1075 23.1725 63.83 21.4825 64.545C20.865 64.8375 20.215 65 19.5 65H13C10.3025 65 8.125 62.8225 8.125 60.125V53.625C8.125 50.9275 10.3025 48.75 13 48.75H19.5C22.1975 48.75 24.375 50.9275 24.375 53.625Z" stroke="#323232" stroke-opacity="0.6" stroke-width="5" stroke-miterlimit="10" stroke-linecap="round" stroke-linejoin="round"/>
<path d="M69.875 53.625V60.125C69.875 62.8225 67.6975 65 65 65H58.5C57.785 65 57.135 64.8375 56.5175 64.545C54.8275 63.83 53.625 62.1075 53.625 60.125V53.625C53.625 50.9275 55.8025 48.75 58.5 48.75H65C67.6975 48.75 69.875 50.9275 69.875 53.625Z" stroke="#323232" stroke-opacity="0.6" stroke-width="5" stroke-miterlimit="10" stroke-linecap="round" stroke-linejoin="round"/>
<path d="M48.75 17.875V27.625C48.75 30.29 46.54 32.5 43.875 32.5H34.125C31.46 32.5 29.25 30.29 29.25 27.625V17.875C29.25 15.21 31.46 13 34.125 13H43.875C46.54 13 48.75 15.21 48.75 17.875Z" stroke="#323232" stroke-opacity="0.6" stroke-width="5" stroke-miterlimit="10" stroke-linecap="round" stroke-linejoin="round"/>
<path opacity="0.4" d="M48.75 25.1226C56.4525 29.0226 61.75 37.4076 61.75 47.1251C61.75 47.6776 61.7175 48.1976 61.6525 48.7501" stroke="#323232" stroke-opacity="0.6" stroke-width="5" stroke-miterlimit="10" stroke-linecap="round" stroke-linejoin="round"/>
<path opacity="0.4" d="M16.3475 48.7501C16.2825 48.1976 16.25 47.6776 16.25 47.1251C16.25 37.4076 21.5475 29.0226 29.25 25.1226" stroke="#323232" stroke-opacity="0.6" stroke-width="5" stroke-miterlimit="10" stroke-linecap="round" stroke-linejoin="round"/>
</svg>
