<svg width="82" height="82" viewBox="0 0 82 82" fill="none" xmlns="http://www.w3.org/2000/svg">
<path d="M30.075 78.511C30.0703 77.936 30.0656 75.4453 30.0609 73.1141L30.0562 70.6922C19.5422 72.1219 16.9969 64.786 16.9687 64.7078C15.5094 61.0078 13.5141 59.95 13.4281 59.9063L13.2344 59.7938C12.5109 59.3 10.5922 57.986 11.1375 56.2578C11.6297 54.7 13.5375 54.5391 14.4047 54.5672C19.2078 54.9031 21.6391 59.2203 21.7391 59.4031C24.1906 63.6047 27.9328 63.1703 30.3469 62.2844C30.5719 61.2094 30.9203 60.2219 31.3766 59.35C23.6328 57.9766 14.8594 53.8578 14.8594 38.875C14.8594 34.761 16.1406 31.125 18.6734 28.0485C18.1078 26.1641 17.4641 22.3203 19.3703 17.4781L19.6422 16.7875L20.3484 16.5625C20.9984 16.3485 24.5484 15.5875 31.8469 20.3641C34.8594 19.5922 38.0484 19.1938 41.3375 19.1782C44.6422 19.1938 47.8344 19.5922 50.8531 20.3641C58.1453 15.586 61.6875 16.3563 62.3391 16.5625L63.0438 16.7891L63.3156 17.4766C65.2297 22.3172 64.5859 26.1625 64.0203 28.0485C66.5484 31.1157 67.8297 34.7531 67.8297 38.875C67.8297 53.861 59.0469 57.9672 51.2859 59.3235C52.1656 60.9875 52.6422 63.0766 52.6422 65.3828C52.6422 68.0125 52.6312 76.6391 52.6187 78.511L49.4937 78.4891C49.5062 76.6203 49.5172 68.0078 49.5172 65.3813C49.5172 61.5656 48.0438 59.8781 47.4078 59.3281L44.7047 56.9891L48.2578 56.5938C56.3906 55.6906 64.7031 52.8766 64.7031 38.8735C64.7031 35.2328 63.4891 32.0594 61.0938 29.4422L60.4219 28.7094L60.8 27.7922C61.0594 27.1657 62.1969 23.9766 60.7328 19.525C59.5484 19.5953 56.7203 20.1531 52.0078 23.3485L51.4078 23.7531L50.7125 23.561C47.8016 22.7516 44.5594 22.3172 41.3359 22.3016C38.1297 22.3172 34.8922 22.7516 31.9859 23.561L31.2906 23.7531L30.6922 23.3485C25.975 20.1547 23.1406 19.5922 21.9516 19.5219C20.4906 23.9766 21.6297 27.1657 21.8891 27.7922L22.2672 28.7094L21.5969 29.4422C19.1969 32.0688 17.9812 35.2422 17.9812 38.8735C17.9812 52.8703 26.2781 55.7016 34.3937 56.625L37.9125 57.025L35.2437 59.3531C34.6625 59.861 33.6344 61.0906 33.2844 63.6141L33.1672 64.4719L32.3766 64.8266C30.3125 65.7516 23.2531 68.2047 19.0203 60.9438C18.9969 60.9047 18.1703 59.4672 16.6734 58.511C17.6828 59.5094 18.9125 61.125 19.9047 63.6469C20.0078 63.9438 22.025 69.3063 31.2797 67.3016L33.1641 66.8922L33.1828 73.1078C33.1875 75.4313 33.1922 77.9141 33.1969 78.4891L30.075 78.511Z" fill="url(#paint0_linear_89_21)"/>
<path d="M41 81.625C18.5984 81.625 0.375 63.4016 0.375 41C0.375 18.5984 18.5984 0.375 41 0.375C63.4016 0.375 81.625 18.5984 81.625 41C81.625 63.4016 63.4016 81.625 41 81.625ZM41 3.5C20.3234 3.5 3.5 20.3234 3.5 41C3.5 61.6766 20.3234 78.5 41 78.5C61.6766 78.5 78.5 61.6766 78.5 41C78.5 20.3234 61.6766 3.5 41 3.5Z" fill="url(#paint1_linear_89_21)"/>
<defs>
<linearGradient id="paint0_linear_89_21" x1="39.4359" y1="16" x2="39.4359" y2="77.4719" gradientUnits="userSpaceOnUse">
<stop stop-color="#6DC7FF"/>
<stop offset="1" stop-color="#E6ABFF"/>
</linearGradient>
<linearGradient id="paint1_linear_89_21" x1="41" y1="-1.1875" x2="41" y2="83.4484" gradientUnits="userSpaceOnUse">
<stop stop-color="#1A6DFF"/>
<stop offset="1" stop-color="#C822FF"/>
</linearGradient>
</defs>
</svg>
