<svg width="39" height="39" viewBox="0 0 39 39" fill="none" xmlns="http://www.w3.org/2000/svg">
<g clip-path="url(#clip0_1_255)">
<path d="M36.1131 0H2.8793C1.2873 0 0 1.25684 0 2.81074V36.1816C0 37.7355 1.2873 39 2.8793 39H36.1131C37.7051 39 39 37.7355 39 36.1893V2.81074C39 1.25684 37.7051 0 36.1131 0ZM11.5705 33.2338H5.78145V14.6174H11.5705V33.2338ZM8.67598 12.0809C6.81738 12.0809 5.3168 10.5803 5.3168 8.7293C5.3168 6.87832 6.81738 5.37773 8.67598 5.37773C10.527 5.37773 12.0275 6.87832 12.0275 8.7293C12.0275 10.5727 10.527 12.0809 8.67598 12.0809ZM33.2338 33.2338H27.4523V24.1846C27.4523 22.0289 27.4143 19.2486 24.4436 19.2486C21.4348 19.2486 20.9777 21.6023 20.9777 24.0322V33.2338H15.2039V14.6174H20.7492V17.1615H20.8254C21.5947 15.699 23.4838 14.1527 26.2945 14.1527C32.1522 14.1527 33.2338 18.007 33.2338 23.0191V33.2338Z" fill="white"/>
</g>
<defs>
<clipPath id="clip0_1_255">
<rect width="39" height="39" fill="white"/>
</clipPath>
</defs>
</svg>
