<svg width="100" height="100" viewBox="0 0 100 100" fill="none" xmlns="http://www.w3.org/2000/svg">
<path d="M0.5 30.2632C0.5 13.8719 13.8719 0.5 30.2632 0.5H69.7368C86.1259 0.5 99.5 13.8715 99.5 30.2632V69.7368C99.5 86.1263 86.1263 99.5 69.7368 99.5H30.2632C13.8715 99.5 0.5 86.1259 0.5 69.7368V30.2632ZM69.7368 7.39474H30.2632C17.586 7.39474 7.39474 17.586 7.39474 30.2632V69.7368C7.39474 82.411 17.5864 92.6053 30.2632 92.6053H69.7368C82.4105 92.6053 92.6053 82.4105 92.6053 69.7368V30.2632C92.6053 17.5864 82.411 7.39474 69.7368 7.39474ZM71.5526 23.6842C71.5526 21.0525 73.684 18.9211 76.3158 18.9211C78.9475 18.9211 81.0789 21.0525 81.0789 23.6842C81.0789 26.316 78.9475 28.4474 76.3158 28.4474C73.684 28.4474 71.5526 26.316 71.5526 23.6842ZM24.1842 50C24.1842 35.7898 35.7898 24.1842 50 24.1842C64.2102 24.1842 75.8158 35.7898 75.8158 50C75.8158 64.2102 64.2102 75.8158 50 75.8158C35.7898 75.8158 24.1842 64.2102 24.1842 50ZM68.9211 50C68.9211 39.505 60.495 31.0789 50 31.0789C39.505 31.0789 31.0789 39.505 31.0789 50C31.0789 60.495 39.505 68.9211 50 68.9211C60.495 68.9211 68.9211 60.495 68.9211 50Z" fill="white" stroke="white"/>
</svg>
