<svg width="70" height="70" viewBox="0 0 70 70" fill="none" xmlns="http://www.w3.org/2000/svg">
<path d="M35 0.959961C16.2178 0.959961 0.959999 16.2177 0.959999 35C0.959999 53.7822 16.2178 69.04 35 69.04C53.7822 69.04 69.04 53.7822 69.04 35C69.04 16.2177 53.7822 0.959961 35 0.959961ZM35 3.91996C52.1825 3.91996 66.08 17.8174 66.08 35C66.08 52.1825 52.1825 66.08 35 66.08C17.8175 66.08 3.92 52.1825 3.92 35C3.92 17.8174 17.8175 3.91996 35 3.91996ZM36.48 14.28C35.072 14.28 33.9944 15.2376 33.2974 16.315C32.6004 17.3924 32.1134 18.7248 31.7191 20.2433C30.9306 23.2804 30.56 27.0606 30.56 30.56C30.56 32.024 30.8388 33.0829 30.956 34.3843C30.9211 34.3675 30.8984 34.3195 30.8635 34.3033C29.7254 33.7759 28.6002 33.52 27.6 33.52C26.3575 33.52 24.2362 33.8357 22.2755 35.3555C20.3148 36.8753 18.72 39.6465 18.72 43.88C18.72 47.3971 19.8655 50.0574 21.5962 51.7743C23.3269 53.4911 25.5573 54.24 27.6 54.24C31.3974 54.24 34.4886 52.3097 36.8009 49.4502C38.1045 50.5652 39.4866 51.28 40.92 51.28C43.6335 51.28 45.5427 49.2552 46.8284 47.0221C48.1141 44.7889 48.9849 42.1282 49.7248 39.9082C49.7864 39.7237 49.811 39.5289 49.7972 39.3349C49.7835 39.1409 49.7316 38.9515 49.6447 38.7775C49.5577 38.6036 49.4373 38.4484 49.2904 38.321C49.1435 38.1936 48.9729 38.0963 48.7884 38.0348C48.6039 37.9733 48.409 37.9487 48.215 37.9625C48.021 37.9763 47.8317 38.0282 47.6577 38.1152C47.4838 38.2022 47.3286 38.3226 47.2012 38.4696C47.0738 38.6165 46.9766 38.7872 46.9152 38.9717C46.1751 41.1917 45.3191 43.711 44.2616 45.5479C43.204 47.3847 42.1537 48.32 40.92 48.32C40.3696 48.32 39.4589 47.7792 38.4774 46.8891C38.6085 46.6592 38.7792 46.4661 38.9023 46.23C41.2729 41.6865 42.4 35.9514 42.4 30.56C42.4 25.9795 41.7566 22.1474 40.8188 19.3588C40.3499 17.9645 39.8178 16.8296 39.177 15.9507C38.5361 15.0719 37.7217 14.28 36.48 14.28ZM36.3875 17.2833C36.4538 17.3347 36.6 17.4451 36.7835 17.6967C37.1544 18.2053 37.6128 19.1054 38.0149 20.3011C38.8191 22.6925 39.44 26.2604 39.44 30.56C39.44 35.362 38.3733 40.4839 36.4366 44.4061C34.8258 41.5448 33.52 36.998 33.52 30.56C33.52 27.2765 33.8912 23.6563 34.5837 20.9891C34.93 19.6555 35.3708 18.5599 35.7834 17.9221C36.1088 17.4191 36.2824 17.3174 36.3875 17.2833ZM27.6 36.48C28.0221 36.48 28.8713 36.6415 29.6205 36.9887C30.3698 37.3359 31.0168 37.8515 31.3491 38.4167C31.3585 38.4323 31.3681 38.4477 31.378 38.4629C31.9672 41.4263 32.7871 43.986 33.8727 45.9034C34.1126 46.3272 34.4256 46.5086 34.682 46.8862C32.7957 49.4506 30.5663 51.28 27.6 51.28C26.2816 51.28 24.8122 50.7927 23.6832 49.6728C22.5542 48.5528 21.68 46.7757 21.68 43.88C21.68 40.3434 22.8295 38.6746 24.0908 37.6969C25.3521 36.7192 26.9303 36.48 27.6 36.48Z" fill="white"/>
</svg>
